<?xml version="1.0" standalone="no"?>
<!DOCTYPE svg PUBLIC "-//W3C//DTD SVG 20010904//EN"
 "http://www.w3.org/TR/2001/REC-SVG-20010904/DTD/svg10.dtd">
<svg version="1.0" xmlns="http://www.w3.org/2000/svg"
 width="512.000000pt" height="512.000000pt" viewBox="0 0 512.000000 512.000000"
 preserveAspectRatio="xMidYMid meet">
<metadata>
Created by potrace 1.14, written by Peter Selinger 2001-2017
</metadata>
<g transform="translate(0.000000,512.000000) scale(0.100000,-0.100000)"
fill="#000000" stroke="none">
<path d="M0 4168 c0 -935 0 -952 19 -923 81 130 289 191 434 127 141 -62 274
-274 517 -817 179 -401 235 -485 325 -485 84 0 155 99 260 365 44 111 47 124
43 195 -3 69 -7 81 -51 155 -26 44 -53 98 -59 119 -11 35 -10 43 13 85 69 122
275 186 424 130 144 -54 285 -274 494 -769 121 -287 158 -328 249 -279 63 33
120 110 206 279 141 275 245 566 296 827 12 59 23 118 26 130 6 33 54 53 124
53 70 0 123 -19 140 -50 37 -69 -159 -716 -331 -1093 -128 -278 -247 -465
-389 -608 -77 -78 -110 -104 -174 -135 -75 -37 -85 -39 -170 -39 -101 1 -151
14 -197 52 -39 33 -64 84 -139 283 -72 189 -147 365 -212 494 l-45 89 -28 -74
c-159 -417 -361 -711 -554 -807 -68 -34 -82 -37 -155 -37 -101 1 -162 26 -226
94 -55 59 -102 152 -221 437 -179 431 -295 660 -524 1029 -37 61 -74 124 -81
140 -11 25 -13 -236 -14 -1552 l0 -1583 2560 0 2560 0 0 951 0 951 -71 -76
c-172 -184 -411 -316 -674 -371 -117 -25 -325 -23 -430 4 -134 35 -239 93
-326 180 -112 113 -169 229 -194 398 -54 358 49 685 294 933 165 166 408 290
568 290 114 0 152 -50 71 -91 -63 -32 -186 -162 -240 -254 -56 -94 -107 -215
-143 -339 -25 -89 -50 -224 -43 -231 2 -3 33 -12 68 -21 176 -45 365 59 498
276 163 265 161 546 -7 703 -60 56 -111 83 -208 108 -42 10 -78 21 -80 23 -12
11 16 39 64 62 49 24 61 26 131 21 181 -15 308 -72 432 -197 98 -97 140 -168
170 -286 42 -162 18 -340 -70 -519 -84 -174 -190 -280 -355 -360 -120 -58
-206 -78 -335 -78 -126 -1 -213 21 -277 70 l-43 33 0 -43 c0 -62 27 -166 56
-215 158 -270 569 -229 911 91 46 42 87 77 93 77 35 0 95 -51 123 -105 15 -27
16 103 17 1553 l0 1582 -2560 0 -2560 0 0 -952z"/>
</g>
</svg>
