<svg width="409" height="166" viewBox="0 0 409 166" fill="none" xmlns="http://www.w3.org/2000/svg">
<path d="M14 159L136.5 12.4097H175.5L179.5 17.839L207.5 10.4707H221.5L218.5 23.6561H249L273.5 12.4097H281.5L287.5 25.5951L308.5 23.6561L334.5 25.5951L347.5 23.6561L361.5 25.5951L385 23.6561L400 25.5951L385 81.439L400 85.317L397.5 159H14Z" fill="white" stroke="white" stroke-width="13"/>
<path d="M136.998 60C136.529 60 136.123 59.8293 135.782 59.488C135.441 59.1467 135.27 58.7413 135.27 58.272V16.928C135.27 16.4587 135.441 16.0533 135.782 15.712C136.123 15.3707 136.529 15.2 136.998 15.2H147.11C147.963 15.2 148.603 15.4347 149.03 15.904C149.457 16.3733 149.734 16.7147 149.862 16.928L159.142 32.288L168.422 16.928C168.55 16.7147 168.827 16.3733 169.254 15.904C169.681 15.4347 170.321 15.2 171.174 15.2H181.286C181.755 15.2 182.161 15.3707 182.502 15.712C182.843 16.0533 183.014 16.4587 183.014 16.928V58.272C183.014 58.7413 182.843 59.1467 182.502 59.488C182.161 59.8293 181.755 60 181.286 60H169.702C169.233 60 168.827 59.8293 168.486 59.488C168.145 59.1467 167.974 58.7413 167.974 58.272V40.736L163.75 47.648C163.537 47.9893 163.238 48.352 162.854 48.736C162.513 49.0773 162.022 49.248 161.382 49.248H156.902C156.262 49.248 155.75 49.0773 155.366 48.736C155.025 48.352 154.747 47.9893 154.534 47.648L150.31 40.736V58.272C150.31 58.7413 150.139 59.1467 149.798 59.488C149.457 59.8293 149.051 60 148.582 60H136.998ZM201.539 60.64C199.405 60.64 197.379 60.128 195.459 59.104C193.581 58.08 192.045 56.5013 190.851 54.368C189.699 52.2347 189.123 49.4827 189.123 46.112V28.448C189.123 27.9787 189.293 27.5733 189.635 27.232C189.976 26.8907 190.381 26.72 190.851 26.72H203.075C203.544 26.72 203.949 26.8907 204.291 27.232C204.632 27.5733 204.803 27.9787 204.803 28.448V45.664C204.803 48.0107 205.869 49.184 208.003 49.184C209.027 49.184 209.816 48.8853 210.371 48.288C210.925 47.6907 211.203 46.816 211.203 45.664V28.448C211.203 27.9787 211.373 27.5733 211.715 27.232C212.056 26.8907 212.461 26.72 212.931 26.72H225.091C225.56 26.72 225.965 26.8907 226.307 27.232C226.648 27.5733 226.819 27.9787 226.819 28.448V58.272C226.819 58.7413 226.648 59.1467 226.307 59.488C225.965 59.8293 225.56 60 225.091 60H213.891C213.421 60 213.016 59.8293 212.675 59.488C212.333 59.1467 212.163 58.7413 212.163 58.272V56.16C211.096 57.7387 209.624 58.8907 207.747 59.616C205.869 60.2987 203.8 60.64 201.539 60.64ZM202.691 21.92C202.008 21.92 201.667 21.5787 201.667 20.896C201.667 20.5547 201.773 20.2773 201.987 20.064L208.387 12.256C208.856 11.7013 209.24 11.36 209.539 11.232C209.88 11.104 210.285 11.04 210.755 11.04H222.659C223.469 11.04 223.875 11.4667 223.875 12.32C223.875 12.6187 223.768 12.8747 223.555 13.088L214.147 20.832C213.805 21.1307 213.443 21.3867 213.059 21.6C212.675 21.8133 212.141 21.92 211.459 21.92H202.691ZM248.184 60.64C245.112 60.64 242.488 60.3413 240.312 59.744C238.178 59.104 236.429 58.3147 235.064 57.376C233.741 56.3947 232.76 55.392 232.12 54.368C231.48 53.3013 231.138 52.3413 231.096 51.488C231.053 51.0187 231.181 50.6133 231.48 50.272C231.821 49.9307 232.205 49.76 232.632 49.76H243.768C243.81 49.76 243.853 49.76 243.896 49.76C243.938 49.76 243.981 49.76 244.024 49.76C244.578 49.8027 245.069 49.9947 245.496 50.336C245.965 50.6347 246.434 50.9333 246.904 51.232C247.416 51.5307 247.992 51.68 248.632 51.68C248.973 51.68 249.293 51.5947 249.592 51.424C249.933 51.2533 250.104 51.0187 250.104 50.72C250.104 50.336 249.976 49.9947 249.72 49.696C249.506 49.3973 248.93 49.0987 247.992 48.8C247.096 48.4587 245.581 48.096 243.448 47.712C241.485 47.328 239.608 46.7307 237.816 45.92C236.024 45.1093 234.552 43.9787 233.4 42.528C232.29 41.0773 231.736 39.2427 231.736 37.024C231.736 35.1893 232.354 33.44 233.592 31.776C234.829 30.112 236.642 28.7467 239.032 27.68C241.464 26.6133 244.429 26.08 247.928 26.08C250.573 26.08 252.92 26.3787 254.968 26.976C257.016 27.5733 258.744 28.3413 260.152 29.28C261.602 30.2187 262.712 31.2213 263.479 32.288C264.248 33.3547 264.653 34.336 264.696 35.232C264.738 35.7013 264.61 36.1067 264.312 36.448C264.013 36.7893 263.672 36.96 263.288 36.96H253.176C253.09 36.96 252.984 36.96 252.856 36.96C252.728 36.96 252.621 36.96 252.536 36.96C251.938 36.96 251.405 36.8107 250.936 36.512C250.466 36.1707 249.997 35.8507 249.528 35.552C249.058 35.2107 248.504 35.04 247.864 35.04C247.565 35.04 247.266 35.1467 246.968 35.36C246.712 35.5307 246.583 35.7653 246.583 36.064C246.583 36.4053 246.712 36.7467 246.968 37.088C247.224 37.3867 247.842 37.6853 248.824 37.984C249.805 38.24 251.405 38.5387 253.624 38.88C256.696 39.3067 259.149 40.096 260.984 41.248C262.818 42.4 264.12 43.7227 264.888 45.216C265.698 46.7093 266.104 48.1813 266.104 49.632C266.104 51.8933 265.4 53.856 263.992 55.52C262.626 57.184 260.6 58.464 257.912 59.36C255.266 60.2133 252.024 60.64 248.184 60.64ZM272.046 60C271.576 60 271.171 59.8293 270.83 59.488C270.488 59.1467 270.318 58.7413 270.318 58.272V28.448C270.318 27.9787 270.488 27.5733 270.83 27.232C271.171 26.8907 271.576 26.72 272.046 26.72H283.502C283.971 26.72 284.376 26.8907 284.718 27.232C285.059 27.5733 285.23 27.9787 285.23 28.448V58.272C285.23 58.7413 285.059 59.1467 284.718 59.488C284.376 59.8293 283.971 60 283.502 60H272.046ZM272.366 23.2C271.896 23.2 271.491 23.0293 271.15 22.688C270.808 22.3467 270.638 21.9413 270.638 21.472V13.728C270.638 13.2587 270.808 12.8533 271.15 12.512C271.491 12.1707 271.896 12 272.366 12H283.182C283.651 12 284.056 12.1707 284.398 12.512C284.739 12.8533 284.91 13.2587 284.91 13.728V21.472C284.91 21.9413 284.739 22.3467 284.398 22.688C284.056 23.0293 283.651 23.2 283.182 23.2H272.366ZM308.465 60.64C305.222 60.64 302.278 60.0853 299.633 58.976C296.988 57.824 294.854 56.16 293.233 53.984C291.612 51.808 290.716 49.1413 290.545 45.984C290.502 45.3013 290.481 44.448 290.481 43.424C290.481 42.4 290.502 41.5253 290.545 40.8C290.716 37.6427 291.59 34.976 293.169 32.8C294.79 30.5813 296.924 28.9173 299.569 27.808C302.257 26.656 305.222 26.08 308.465 26.08C311.836 26.08 314.694 26.5707 317.041 27.552C319.43 28.4907 321.35 29.664 322.801 31.072C324.294 32.4373 325.382 33.8027 326.065 35.168C326.79 36.5333 327.174 37.6427 327.217 38.496C327.26 38.9653 327.089 39.3707 326.705 39.712C326.364 40.0533 325.958 40.224 325.489 40.224H313.009C312.54 40.224 312.156 40.1173 311.857 39.904C311.601 39.648 311.366 39.328 311.153 38.944C310.854 38.3467 310.534 37.8773 310.193 37.536C309.894 37.1947 309.425 37.024 308.785 37.024C307.804 37.024 307.142 37.3867 306.801 38.112C306.46 38.8373 306.268 39.84 306.225 41.12C306.182 42.9547 306.182 44.4693 306.225 45.664C306.31 47.0293 306.502 48.0533 306.801 48.736C307.142 49.376 307.804 49.696 308.785 49.696C309.553 49.696 310.065 49.5253 310.321 49.184C310.62 48.8427 310.897 48.3733 311.153 47.776C311.324 47.392 311.558 47.0933 311.857 46.88C312.156 46.624 312.54 46.496 313.009 46.496H325.489C325.958 46.496 326.364 46.6667 326.705 47.008C327.089 47.3493 327.26 47.7547 327.217 48.224C327.174 48.7787 326.94 49.568 326.513 50.592C326.129 51.5733 325.489 52.64 324.593 53.792C323.74 54.944 322.588 56.0533 321.137 57.12C319.686 58.144 317.916 58.9973 315.825 59.68C313.734 60.32 311.281 60.64 308.465 60.64ZM341.942 60.64C339.51 60.64 337.355 60.192 335.478 59.296C333.6 58.4 332.128 57.184 331.062 55.648C330.038 54.112 329.526 52.384 329.526 50.464C329.526 47.3493 330.784 44.9173 333.302 43.168C335.862 41.376 339.275 40.1173 343.542 39.392L350.326 38.304V38.24C350.326 37.1307 350.219 36.32 350.006 35.808C349.835 35.296 349.302 35.04 348.406 35.04C347.808 35.04 347.318 35.168 346.934 35.424C346.592 35.6373 346.208 35.9573 345.782 36.384C345.312 36.8533 344.715 37.088 343.99 37.088H333.11C332.683 37.088 332.32 36.96 332.022 36.704C331.766 36.448 331.659 36.1067 331.702 35.68C331.744 34.8693 332.086 33.9307 332.726 32.864C333.366 31.7547 334.347 30.688 335.67 29.664C337.035 28.64 338.763 27.7867 340.854 27.104C342.987 26.4213 345.547 26.08 348.534 26.08C351.435 26.08 353.952 26.4 356.086 27.04C358.262 27.6373 360.054 28.5333 361.462 29.728C362.87 30.88 363.915 32.3307 364.597 34.08C365.323 35.7867 365.686 37.728 365.686 39.904V58.272C365.686 58.7413 365.515 59.1467 365.174 59.488C364.832 59.8293 364.427 60 363.958 60H352.758C352.288 60 351.883 59.8293 351.542 59.488C351.2 59.1467 351.03 58.7413 351.03 58.272V56.48C350.432 57.3333 349.664 58.08 348.726 58.72C347.83 59.3173 346.806 59.7867 345.654 60.128C344.502 60.4693 343.264 60.64 341.942 60.64ZM346.358 51.168C347.211 51.168 347.936 50.9973 348.534 50.656C349.174 50.3147 349.664 49.7813 350.006 49.056C350.347 48.288 350.518 47.3493 350.518 46.24V46.176L346.742 47.008C345.632 47.264 344.886 47.6053 344.502 48.032C344.118 48.4587 343.926 48.9067 343.926 49.376C343.926 49.6747 344.011 49.9733 344.182 50.272C344.395 50.528 344.672 50.7413 345.014 50.912C345.398 51.0827 345.846 51.168 346.358 51.168ZM386.746 60.64C383.674 60.64 381.05 60.3413 378.874 59.744C376.741 59.104 374.991 58.3147 373.626 57.376C372.303 56.3947 371.322 55.392 370.682 54.368C370.042 53.3013 369.701 52.3413 369.658 51.488C369.615 51.0187 369.743 50.6133 370.042 50.272C370.383 49.9307 370.767 49.76 371.194 49.76H382.33C382.373 49.76 382.415 49.76 382.458 49.76C382.501 49.76 382.543 49.76 382.586 49.76C383.141 49.8027 383.631 49.9947 384.058 50.336C384.527 50.6347 384.997 50.9333 385.466 51.232C385.978 51.5307 386.554 51.68 387.194 51.68C387.535 51.68 387.855 51.5947 388.154 51.424C388.495 51.2533 388.666 51.0187 388.666 50.72C388.666 50.336 388.538 49.9947 388.282 49.696C388.069 49.3973 387.493 49.0987 386.554 48.8C385.658 48.4587 384.143 48.096 382.01 47.712C380.047 47.328 378.17 46.7307 376.378 45.92C374.586 45.1093 373.114 43.9787 371.962 42.528C370.853 41.0773 370.298 39.2427 370.298 37.024C370.298 35.1893 370.917 33.44 372.154 31.776C373.391 30.112 375.205 28.7467 377.594 27.68C380.026 26.6133 382.991 26.08 386.49 26.08C389.135 26.08 391.482 26.3787 393.53 26.976C395.578 27.5733 397.306 28.3413 398.714 29.28C400.165 30.2187 401.274 31.2213 402.042 32.288C402.81 33.3547 403.215 34.336 403.258 35.232C403.301 35.7013 403.173 36.1067 402.874 36.448C402.575 36.7893 402.234 36.96 401.85 36.96H391.738C391.653 36.96 391.546 36.96 391.418 36.96C391.29 36.96 391.183 36.96 391.098 36.96C390.501 36.96 389.967 36.8107 389.498 36.512C389.029 36.1707 388.559 35.8507 388.09 35.552C387.621 35.2107 387.066 35.04 386.426 35.04C386.127 35.04 385.829 35.1467 385.53 35.36C385.274 35.5307 385.146 35.7653 385.146 36.064C385.146 36.4053 385.274 36.7467 385.53 37.088C385.786 37.3867 386.405 37.6853 387.386 37.984C388.367 38.24 389.967 38.5387 392.186 38.88C395.258 39.3067 397.711 40.096 399.546 41.248C401.381 42.4 402.682 43.7227 403.45 45.216C404.261 46.7093 404.666 48.1813 404.666 49.632C404.666 51.8933 403.962 53.856 402.554 55.52C401.189 57.184 399.162 58.464 396.474 59.36C393.829 60.2133 390.586 60.64 386.746 60.64ZM225.748 136C225.279 136 224.873 135.829 224.532 135.488C224.191 135.147 224.02 134.741 224.02 134.272V92.928C224.02 92.4587 224.191 92.0533 224.532 91.712C224.873 91.3707 225.279 91.2 225.748 91.2H244.18C248.191 91.2 251.775 91.8827 254.932 93.248C258.089 94.5707 260.607 96.5333 262.484 99.136C264.404 101.739 265.428 104.96 265.556 108.8C265.641 110.635 265.684 112.256 265.684 113.664C265.684 115.029 265.641 116.587 265.556 118.336C265.385 122.347 264.404 125.675 262.612 128.32C260.82 130.923 258.367 132.864 255.252 134.144C252.18 135.381 248.596 136 244.5 136H225.748ZM240.02 123.52H244.18C245.119 123.52 245.951 123.349 246.676 123.008C247.444 122.624 248.063 122.048 248.532 121.28C249.001 120.512 249.257 119.531 249.3 118.336C249.385 117.099 249.428 115.989 249.428 115.008C249.471 114.027 249.471 113.045 249.428 112.064C249.428 111.04 249.385 109.952 249.3 108.8C249.215 107.008 248.639 105.707 247.572 104.896C246.548 104.085 245.311 103.68 243.86 103.68H240.02V123.52ZM287.971 136.64C282.382 136.64 277.923 135.275 274.595 132.544C271.31 129.771 269.667 125.397 269.667 119.424C269.667 119.339 269.667 119.253 269.667 119.168C269.667 119.083 269.667 119.019 269.667 118.976C269.752 115.307 270.542 112.213 272.035 109.696C273.571 107.179 275.683 105.28 278.371 104C281.102 102.72 284.28 102.08 287.907 102.08C292.088 102.08 295.523 102.891 298.211 104.512C300.899 106.091 302.883 108.203 304.163 110.848C305.486 113.451 306.147 116.331 306.147 119.488V121.408C306.147 121.877 305.976 122.283 305.635 122.624C305.294 122.965 304.888 123.136 304.419 123.136H285.347C285.347 123.179 285.347 123.221 285.347 123.264C285.347 123.307 285.347 123.371 285.347 123.456C285.347 124.309 285.411 125.035 285.539 125.632C285.71 126.187 285.987 126.613 286.371 126.912C286.755 127.211 287.246 127.36 287.843 127.36C288.099 127.36 288.312 127.317 288.483 127.232C288.696 127.147 288.888 127.019 289.059 126.848C289.272 126.635 289.486 126.421 289.699 126.208C290.083 125.824 290.403 125.589 290.659 125.504C290.915 125.376 291.299 125.312 291.811 125.312H303.907C304.334 125.312 304.675 125.44 304.931 125.696C305.23 125.952 305.358 126.293 305.315 126.72C305.272 127.531 304.888 128.512 304.163 129.664C303.48 130.773 302.435 131.861 301.027 132.928C299.619 133.995 297.827 134.891 295.651 135.616C293.475 136.299 290.915 136.64 287.971 136.64ZM285.347 115.136H290.467V115.072C290.467 114.133 290.36 113.365 290.147 112.768C289.976 112.171 289.699 111.744 289.315 111.488C288.931 111.189 288.462 111.04 287.907 111.04C287.352 111.04 286.883 111.189 286.499 111.488C286.115 111.744 285.816 112.171 285.603 112.768C285.432 113.365 285.347 114.133 285.347 115.072V115.136ZM312.358 136C311.889 136 311.483 135.829 311.142 135.488C310.801 135.147 310.63 134.741 310.63 134.272V92.288C310.63 91.8187 310.801 91.4133 311.142 91.072C311.483 90.7307 311.889 90.56 312.358 90.56H323.814C324.283 90.56 324.689 90.7307 325.03 91.072C325.371 91.4133 325.542 91.8187 325.542 92.288V134.272C325.542 134.741 325.371 135.147 325.03 135.488C324.689 135.829 324.283 136 323.814 136H312.358ZM341.942 136.64C339.51 136.64 337.355 136.192 335.478 135.296C333.6 134.4 332.128 133.184 331.062 131.648C330.038 130.112 329.526 128.384 329.526 126.464C329.526 123.349 330.784 120.917 333.302 119.168C335.862 117.376 339.275 116.117 343.542 115.392L350.326 114.304V114.24C350.326 113.131 350.219 112.32 350.006 111.808C349.835 111.296 349.302 111.04 348.406 111.04C347.808 111.04 347.318 111.168 346.934 111.424C346.592 111.637 346.208 111.957 345.782 112.384C345.312 112.853 344.715 113.088 343.99 113.088H333.11C332.683 113.088 332.32 112.96 332.022 112.704C331.766 112.448 331.659 112.107 331.702 111.68C331.744 110.869 332.086 109.931 332.726 108.864C333.366 107.755 334.347 106.688 335.67 105.664C337.035 104.64 338.763 103.787 340.854 103.104C342.987 102.421 345.547 102.08 348.534 102.08C351.435 102.08 353.952 102.4 356.086 103.04C358.262 103.637 360.054 104.533 361.462 105.728C362.87 106.88 363.915 108.331 364.597 110.08C365.323 111.787 365.686 113.728 365.686 115.904V134.272C365.686 134.741 365.515 135.147 365.174 135.488C364.832 135.829 364.427 136 363.958 136H352.758C352.288 136 351.883 135.829 351.542 135.488C351.2 135.147 351.03 134.741 351.03 134.272V132.48C350.432 133.333 349.664 134.08 348.726 134.72C347.83 135.317 346.806 135.787 345.654 136.128C344.502 136.469 343.264 136.64 341.942 136.64ZM346.358 127.168C347.211 127.168 347.936 126.997 348.534 126.656C349.174 126.315 349.664 125.781 350.006 125.056C350.347 124.288 350.518 123.349 350.518 122.24V122.176L346.742 123.008C345.632 123.264 344.886 123.605 344.502 124.032C344.118 124.459 343.926 124.907 343.926 125.376C343.926 125.675 344.011 125.973 344.182 126.272C344.395 126.528 344.672 126.741 345.014 126.912C345.398 127.083 345.846 127.168 346.358 127.168ZM386.746 136.64C383.674 136.64 381.05 136.341 378.874 135.744C376.741 135.104 374.991 134.315 373.626 133.376C372.303 132.395 371.322 131.392 370.682 130.368C370.042 129.301 369.701 128.341 369.658 127.488C369.615 127.019 369.743 126.613 370.042 126.272C370.383 125.931 370.767 125.76 371.194 125.76H382.33C382.373 125.76 382.415 125.76 382.458 125.76C382.501 125.76 382.543 125.76 382.586 125.76C383.141 125.803 383.631 125.995 384.058 126.336C384.527 126.635 384.997 126.933 385.466 127.232C385.978 127.531 386.554 127.68 387.194 127.68C387.535 127.68 387.855 127.595 388.154 127.424C388.495 127.253 388.666 127.019 388.666 126.72C388.666 126.336 388.538 125.995 388.282 125.696C388.069 125.397 387.493 125.099 386.554 124.8C385.658 124.459 384.143 124.096 382.01 123.712C380.047 123.328 378.17 122.731 376.378 121.92C374.586 121.109 373.114 119.979 371.962 118.528C370.853 117.077 370.298 115.243 370.298 113.024C370.298 111.189 370.917 109.44 372.154 107.776C373.391 106.112 375.205 104.747 377.594 103.68C380.026 102.613 382.991 102.08 386.49 102.08C389.135 102.08 391.482 102.379 393.53 102.976C395.578 103.573 397.306 104.341 398.714 105.28C400.165 106.219 401.274 107.221 402.042 108.288C402.81 109.355 403.215 110.336 403.258 111.232C403.301 111.701 403.173 112.107 402.874 112.448C402.575 112.789 402.234 112.96 401.85 112.96H391.738C391.653 112.96 391.546 112.96 391.418 112.96C391.29 112.96 391.183 112.96 391.098 112.96C390.501 112.96 389.967 112.811 389.498 112.512C389.029 112.171 388.559 111.851 388.09 111.552C387.621 111.211 387.066 111.04 386.426 111.04C386.127 111.04 385.829 111.147 385.53 111.36C385.274 111.531 385.146 111.765 385.146 112.064C385.146 112.405 385.274 112.747 385.53 113.088C385.786 113.387 386.405 113.685 387.386 113.984C388.367 114.24 389.967 114.539 392.186 114.88C395.258 115.307 397.711 116.096 399.546 117.248C401.381 118.4 402.682 119.723 403.45 121.216C404.261 122.709 404.666 124.181 404.666 125.632C404.666 127.893 403.962 129.856 402.554 131.52C401.189 133.184 399.162 134.464 396.474 135.36C393.829 136.213 390.586 136.64 386.746 136.64Z" fill="black"/>
</svg>
