<svg width="166" height="146" viewBox="0 0 166 146" fill="none" xmlns="http://www.w3.org/2000/svg">
<path d="M7.39605 26.9015C5.53874 39.6143 3.42544 46.2381 6.20409 59.5363C9.01071 72.9685 17.0559 90.3263 29.4118 95.6054C38.4643 99.4731 49.2851 93.7334 56.4206 88.4791C63.5082 83.2601 67.8112 76.1584 70.1594 66.9891C70.8931 64.1244 75.464 45.5382 68.3512 46.2714C57.5861 47.381 50.8712 61.3255 48.8641 71.8892C41.5498 110.385 82.5204 137.719 111.736 127.68C130.338 121.289 144.58 105.46 155.097 87.6973C156.45 85.4132 158.903 81.9048 158.271 78.7296" stroke="white" stroke-width="3" stroke-linecap="round"/>
<path d="M119 94.8874C131.621 91.6794 143.253 87.7023 154.701 80.7653C156.527 79.659 157.834 79 159.848 79" stroke="white" stroke-width="3" stroke-linecap="round"/>
<path d="M160 79V110.775" stroke="white" stroke-width="3" stroke-linecap="round"/>
</svg>
