<svg width="347" height="132" viewBox="0 0 347 132" fill="none" xmlns="http://www.w3.org/2000/svg">
<path d="M347 121.675C343.844 120.811 342.847 117.528 341.186 110.787C339.525 104.047 337.532 95.5791 328.894 92.9867C320.257 90.3944 314.277 96.616 309.46 101.455C304.642 106.294 302.151 108.541 298.995 107.504C295.839 106.64 294.842 103.356 293.181 96.616C291.52 89.8759 289.527 81.2347 280.889 78.8152C272.251 76.2228 266.271 82.4445 261.454 87.2836C256.637 92.1226 254.146 94.3693 250.99 93.3324C247.833 92.4683 246.837 89.1846 245.176 82.4445C243.515 75.7044 241.521 67.2361 232.884 64.6437C224.246 62.0514 218.266 68.273 213.449 73.112C208.632 77.9511 206.14 80.1978 202.984 79.1609C199.828 78.2967 198.831 75.0131 197.17 68.273C195.509 61.5329 193.516 52.8917 184.878 50.4722C175.576 47.707 168.932 53.583 163.783 58.0764C158.799 62.5698 155.477 65.1622 151.158 63.7796C146.84 62.5698 145.345 58.4221 143.351 52.0276C141.192 45.1147 138.534 36.6463 129.232 33.8812C119.93 31.116 113.286 36.8192 108.136 41.4854C103.153 45.9788 99.831 48.5711 95.5122 47.1886C91.1934 45.9788 89.6984 41.8311 87.7051 35.4366C85.5457 28.6965 82.888 20.0553 73.5859 17.2902C64.2839 14.525 57.6396 20.401 52.4902 24.8944C47.507 29.215 44.1848 31.9801 39.866 30.5975C35.5472 29.3878 34.0522 25.24 32.0589 18.8456C29.8995 12.1055 27.2417 3.4643 17.9397 0.699129C15.448 0.00783595 12.9564 -0.165019 10.797 0.180628C6.64433 0.87192 3.15606 3.11863 0 5.53816L1.49496 16.7717C1.82718 16.426 2.32552 16.0804 2.65774 15.7347C7.64099 11.2413 10.9631 8.64898 15.2819 10.0316C19.6007 11.2413 21.0957 15.3891 23.089 21.7835C25.2484 28.6965 27.9062 37.1648 37.2082 39.93C46.5103 42.6951 53.1546 36.8192 58.304 32.3258C63.2872 28.0052 66.6094 25.24 70.9282 26.6226C75.247 27.8324 76.742 31.9801 78.7353 38.3746C80.8947 45.1147 83.5524 53.7558 92.8545 56.521C102.157 59.2862 108.801 53.583 113.95 48.9168C118.933 44.5962 122.256 41.8311 126.574 43.2136C130.893 44.4234 132.388 48.5711 134.382 54.9656C136.541 61.7057 139.199 70.3469 148.501 73.112C157.803 75.8772 164.447 70.1741 169.596 65.5078C174.58 61.1873 177.902 58.422 182.221 59.8046C185.377 60.6687 186.373 63.9524 188.034 70.6925C189.696 77.4326 191.689 86.0738 200.326 88.4933C208.964 91.0856 214.944 84.864 219.761 80.025C224.578 75.1859 227.07 72.9392 230.226 73.9762C233.382 74.8403 234.379 78.1239 236.04 84.864C237.701 91.6041 239.694 100.245 248.332 102.665C256.969 105.257 262.949 99.0355 267.766 94.1965C272.583 89.3574 275.075 87.1107 278.231 88.1477C281.387 89.0118 282.384 92.2954 284.045 99.0355C285.706 105.776 287.699 114.417 296.337 116.836C304.975 119.429 310.955 113.207 315.772 108.368C320.589 103.529 323.08 101.282 326.236 102.319C329.393 103.183 330.389 106.467 332.05 113.207C333.711 119.947 335.705 128.588 344.342 131.008L347 121.675Z" fill="#FFFEFF"/>
</svg>
